<?xml version="1.0" standalone="no"?><!DOCTYPE svg PUBLIC "-//W3C//DTD SVG 1.1//EN" "http://www.w3.org/Graphics/SVG/1.1/DTD/svg11.dtd"><svg t="1602640278714" class="icon" viewBox="0 0 1024 1024" version="1.1" xmlns="http://www.w3.org/2000/svg" p-id="11267" width="32" height="32" xmlns:xlink="http://www.w3.org/1999/xlink"><defs><style type="text/css"></style></defs><path d="M512 354.011429s58.514286 80.457143 58.514286 160.914285-58.514286 160.914286-58.514286 160.914286c89.234286 0 160.914286-71.68 160.914286-160.914286s-71.68-160.914286-160.914286-160.914285zM512 354.011429c-89.234286 0-160.914286 71.68-160.914286 160.914285s71.68 160.914286 160.914286 160.914286c0 0-58.514286-80.457143-58.514286-160.914286s58.514286-160.914286 58.514286-160.914285z" fill="#FFBB02" p-id="11268"></path><path d="M512 0C229.668571 0 0 229.668571 0 512s229.668571 512 512 512 512-229.668571 512-512S794.331429 0 512 0z m0 705.097143c-194.56 0-351.085714-160.914286-351.085714-190.171429s156.525714-190.171429 351.085714-190.171428 351.085714 160.914286 351.085714 190.171428-156.525714 190.171429-351.085714 190.171429z" fill="#FFBB02" p-id="11269"></path></svg>